<svg width="23" height="23" viewBox="0 0 23 23" fill="none" xmlns="http://www.w3.org/2000/svg">
              <path d="M17.7283 12.0005C16.3305 12.0005 14.9898 12.58 14.0013 13.6114C13.0129 14.6429 12.4575 16.0419 12.4575 17.5005C12.4575 18.9591 13.0129 20.358 14.0013 21.3895C14.9898 22.4209 16.3305 23.0004 17.7283 23.0004C19.1262 23.0004 20.4669 22.4209 21.4554 21.3895C22.4438 20.358 22.9992 18.9591 22.9992 17.5005C22.9992 16.0419 22.4438 14.6429 21.4554 13.6114C20.4669 12.58 19.1262 12.0005 17.7283 12.0005ZM17.7283 22.0004C16.5845 22.0004 15.4877 21.5264 14.6789 20.6825C13.8701 19.8386 13.4159 18.694 13.4159 17.5005C13.4159 16.3069 13.8701 15.1624 14.6789 14.3184C15.4876 13.4745 16.5845 13.0005 17.7283 13.0005C18.8722 13.0005 19.969 13.4745 20.7778 14.3184C21.5866 15.1623 22.0408 16.3069 22.0408 17.5005C22.0408 18.694 21.5866 19.8385 20.7778 20.6825C19.9691 21.5264 18.8722 22.0004 17.7283 22.0004Z" fill="#58595B"></path>
              <path d="M19.2531 15.7596L16.9292 18.1795L16.2055 17.4244V17.4246C16.1157 17.3299 15.9931 17.2767 15.8654 17.2767C15.7376 17.2767 15.6152 17.3299 15.5251 17.4246C15.3393 17.6195 15.3393 17.9345 15.5251 18.1297L16.5937 19.2396C16.7805 19.4334 17.0824 19.4334 17.2693 19.2396L19.9335 16.4646C20.1201 16.2685 20.119 15.9517 19.9311 15.757C19.7432 15.5625 19.4397 15.5635 19.2532 15.7596L19.2531 15.7596Z" fill="#58595B"></path>
              <path d="M11.1789 20H1.91665C1.66246 20 1.41874 19.8948 1.23906 19.7071C1.05918 19.5196 0.958295 19.2653 0.958295 19V8.00007H14.8541C15.1188 8.00007 15.3333 7.77624 15.3333 7.50007C15.3333 7.2239 15.1188 7.00007 14.8541 7.00007H0.958295V4.00009C0.958295 3.73486 1.05918 3.48054 1.23906 3.29304C1.41874 3.10535 1.66244 3.00007 1.91665 3.00007H4.0729V3.50007C4.0729 3.89792 4.22432 4.27937 4.49385 4.56082C4.76357 4.84206 5.12913 5.00007 5.5104 5.00007H5.98957C6.37084 5.00007 6.7364 4.84206 7.00612 4.56082C7.27565 4.27937 7.42708 3.89792 7.42708 3.50007V3.00007H13.6562V3.50007C13.6562 3.89792 13.8077 4.27937 14.0772 4.56082C14.3469 4.84206 14.7125 5.00007 15.0938 5.00007H15.5729C15.9542 5.00007 16.3197 4.84206 16.5895 4.56082C16.859 4.27937 17.0104 3.89792 17.0104 3.50007V3.00007H19.1667C19.4209 3.00007 19.6646 3.10535 19.8443 3.29304C20.0241 3.48054 20.125 3.73484 20.125 4.00009V7.00007H17.9783C17.7136 7.00007 17.4991 7.2239 17.4991 7.50007C17.4991 7.77624 17.7136 8.00007 17.9783 8.00007H20.125V10.97C20.125 11.2461 20.3395 11.4699 20.6042 11.4699C20.8689 11.4699 21.0834 11.2461 21.0834 10.97V3.99999C21.0834 3.46954 20.8814 2.96094 20.522 2.58575C20.1625 2.21075 19.675 2 19.1667 2H17.0104V1.5C17.0104 1.10215 16.859 0.720706 16.5895 0.439258C16.3198 0.158009 15.9542 0 15.5729 0H15.0938C14.7125 0 14.3469 0.158009 14.0772 0.439258C13.8077 0.720701 13.6563 1.10215 13.6563 1.5V2H7.4271V1.5C7.4271 1.10215 7.27567 0.720706 7.00614 0.439258C6.73642 0.158009 6.37086 0 5.98959 0H5.51042C5.12915 0 4.76359 0.158009 4.49387 0.439258C4.22434 0.720701 4.07291 1.10215 4.07291 1.5V2H1.91667C1.40832 2 0.92091 2.21074 0.561344 2.58575C0.201969 2.96094 0 3.46954 0 3.99999V18.9999C0 19.5304 0.201959 20.039 0.561344 20.4142C0.920905 20.7892 1.40832 20.9999 1.91667 20.9999H11.179C11.4436 20.9999 11.6581 20.7761 11.6581 20.4999C11.6581 20.2237 11.4436 20 11.1789 20ZM14.6145 1.50012C14.6145 1.22395 14.829 1.00012 15.0937 1.00012H15.5728C15.6999 1.00012 15.8218 1.05286 15.9116 1.14661C16.0015 1.24036 16.052 1.36751 16.052 1.50012V3.50011C16.052 3.63273 16.0015 3.75988 15.9116 3.85362C15.8218 3.94737 15.6999 4.00011 15.5728 4.00011H15.0937C14.829 4.00011 14.6145 3.77628 14.6145 3.50011V1.50012ZM5.03118 1.50012C5.03118 1.22395 5.24568 1.00012 5.51035 1.00012H5.98951C6.1166 1.00012 6.23845 1.05286 6.3283 1.14661C6.41814 1.24036 6.46868 1.36751 6.46868 1.50012V3.50011C6.46868 3.63273 6.41814 3.75988 6.3283 3.85362C6.23845 3.94737 6.1166 4.00011 5.98951 4.00011H5.51035C5.24568 4.00011 5.03118 3.77628 5.03118 3.50011V1.50012Z" fill="#58595B"></path>
              <path d="M11.4992 11.0007C11.4992 11.5531 11.0702 12.0007 10.5409 12.0007C10.0115 12.0007 9.58252 11.5531 9.58252 11.0007C9.58252 10.4484 10.0115 10.0007 10.5409 10.0007C11.0702 10.0007 11.4992 10.4484 11.4992 11.0007Z" fill="#F04E30"></path>
              <path d="M5.75187 11.0007C5.75187 11.5531 5.32287 12.0007 4.79354 12.0007C4.26421 12.0007 3.83521 11.5531 3.83521 11.0007C3.83521 10.4484 4.26421 10.0007 4.79354 10.0007C5.32287 10.0007 5.75187 10.4484 5.75187 11.0007Z" fill="#F04E30"></path>
              <path d="M5.75187 16.4995C5.75187 17.0519 5.32287 17.4995 4.79354 17.4995C4.26421 17.4995 3.83521 17.0518 3.83521 16.4995C3.83521 15.9472 4.26421 15.4995 4.79354 15.4995C5.32287 15.4995 5.75187 15.9472 5.75187 16.4995Z" fill="#F04E30"></path>
            </svg>