<svg width="24" height="24" viewBox="0 0 24 24" fill="none" xmlns="http://www.w3.org/2000/svg">
              <path d="M3.83862 11.6841C6.07056 13.8948 8.80637 15.307 8.80637 15.307C8.80637 15.307 16.6128 11.2796 16.6128 6.17702C16.6128 3.72154 14.7322 1.70605 12.408 1.70605" stroke="#58595B" stroke-linecap="round" stroke-linejoin="round"></path>
              <path d="M5.20484 1.70972C2.88065 1.70972 1 3.7252 1 6.18068C1 7.50068 1.52161 8.74617 2.29516 9.87101" stroke="#58595B" stroke-linecap="round" stroke-linejoin="round"></path>
              <path d="M6.32257 3.12903C6.91049 3.12903 7.38709 2.65243 7.38709 2.06452C7.38709 1.4766 6.91049 1 6.32257 1C5.73466 1 5.25806 1.4766 5.25806 2.06452C5.25806 2.65243 5.73466 3.12903 6.32257 3.12903Z" stroke="#58595B" stroke-linecap="round" stroke-linejoin="round"></path>
              <path d="M11.2903 3.12903C11.8783 3.12903 12.3549 2.65243 12.3549 2.06452C12.3549 1.4766 11.8783 1 11.2903 1C10.7024 1 10.2258 1.4766 10.2258 2.06452C10.2258 2.65243 10.7024 3.12903 11.2903 3.12903Z" stroke="#58595B" stroke-linecap="round" stroke-linejoin="round"></path>
              <path d="M19.8064 16.9677V17.5C19.8064 20.5232 17.3296 23 14.3064 23C11.2832 23 8.8064 20.5232 8.8064 17.5V15.5483" stroke="#58595B" stroke-linecap="round" stroke-linejoin="round"></path>
              <path d="M18.387 18.05C17.3367 17.5284 16.6128 16.4461 16.6128 15.1935C16.6128 13.43 18.0428 12 19.8063 12C21.5699 12 22.9999 13.43 22.9999 15.1935C22.9999 16.4461 22.276 17.5284 21.2257 18.05" stroke="#58595B" stroke-linecap="round" stroke-linejoin="round"></path>
              <path d="M19.8066 16.613C20.5904 16.613 21.2259 15.9775 21.2259 15.1936C21.2259 14.4098 20.5904 13.7743 19.8066 13.7743C19.0227 13.7743 18.3872 14.4098 18.3872 15.1936C18.3872 15.9775 19.0227 16.613 19.8066 16.613Z" fill="#F04E30" stroke="#58595B" stroke-linecap="round" stroke-linejoin="round"></path>
              <path d="M1 9.87098H4.19355L5.25806 8.09679L7.03226 11.6452L9.16129 5.61292L10.9355 9.87098H12.7097" stroke="#58595B" stroke-linecap="square" stroke-linejoin="round"></path>
            </svg>